<svg id="arcade-icon-svg" width="512" height="337" viewBox="0 0 512 337" fill="none" xmlns="http://www.w3.org/2000/svg">
<path d="M0 230.925C1.38774 227.385 1.27058 217.202 1.72319 212.847C4.76762 183.645 10.411 153.495 18.4353 125.272C30.3283 83.442 53.2892 28.6098 94.6677 8.16103C138.434 -13.4682 198.338 16.9305 243.598 21.5363C248.288 22.0135 252.768 22.9565 257.543 22.6605C279.033 20.9705 300.528 15.4548 321.38 10.321C349.308 3.44577 380.785 -5.61123 409.103 4.55752C451.263 19.6973 474.705 67.8393 487.905 107.367C495.217 128.994 500.857 151.149 504.777 173.637C506.93 185.752 508.598 197.38 509.983 209.592C510.545 214.552 510.63 227.457 512 231.47V258.697C510.69 262.667 510.823 271.51 510.22 276.1C507.535 296.972 500.408 320.087 480.788 330.962C468.683 337.672 453.36 337.017 440.378 333.097C413.613 325.017 390.532 306.642 369.115 289.26C359.937 281.815 351.565 272.842 341.978 265.815C316.523 247.837 279.458 242.74 248.942 243.765C225.436 244.542 200.861 248.877 179.792 259.722C165.37 267.147 154.082 280.18 141.575 290.305C119.743 307.977 96.5015 325.932 69.1885 334.072C59.9165 336.837 47.8843 336.785 38.5965 334.177C13.3813 326.215 4.28212 299.02 1.61386 275.252C1.19603 271.53 1.21333 262.71 0 259.74V230.925ZM366.203 256.547C387.378 276.07 430.035 314.02 459.668 312.955C465.738 312.737 470.655 310.707 474.807 306.225C488.89 291.022 488.963 253.245 488.038 233.237C485.998 189.12 473.89 129.231 455.615 89.1043C447.725 71.7855 437.605 54.5673 423.372 41.7073C409.565 29.2298 392.022 23.5473 373.5 24.54C358.535 25.3423 344.023 28.6983 329.505 32.2243C310.698 36.7928 291.835 41.9625 272.6 44.3713C266.243 45.1675 259.923 46.0363 253.5 45.8613C249.451 45.7508 245.35 45.109 241.329 44.6138C221.396 42.1585 201.792 37.0218 182.352 32.0968C165.748 27.89 148.805 23.5888 131.539 24.2165C110.801 25.4268 95.202 33.319 81.4473 48.7615C40.4847 94.7498 20.5801 202.237 24.1484 262.967C24.9563 276.717 27.4037 297.1 38.307 306.752C42.9345 310.85 48.8158 312.24 54.8913 311.862C78.1748 310.415 108.637 286.747 126.203 271.902C136.028 263.6 145.189 254.39 155.645 246.857C158.984 244.452 162.755 242.317 166.325 240.262C172.842 236.512 180.164 233.622 187.235 231.112C225.851 217.392 271.3 216.155 310.755 226.945C317.638 228.827 324.573 231.012 331.128 233.862C339.638 237.562 348.377 242.077 355.777 247.722C359.392 250.48 362.7 253.647 366.203 256.547Z" fill="#e03a2f"/>
<path d="M135.154 63.6948C143.368 62.9608 152.883 65.8875 159.354 70.923C168.619 78.1323 172.652 85.684 174.275 97.038C182.704 99.278 185.446 99.2293 193.146 104.824C200.93 110.523 206.122 119.087 207.576 128.624C209.155 138.204 206.82 148.017 201.095 155.86C193.837 165.672 186.221 169.66 174.443 171.44C173.866 173.755 173.597 176.39 172.856 178.642C167.992 193.422 154.809 204.217 139.229 204.995C131.255 205.447 123.356 203.252 116.759 198.752C110.282 194.302 104.478 187.67 102.179 180.077C101.342 177.312 100.849 174.21 100.327 171.352C93.1845 170.425 88.1153 169.057 82.1068 164.875C73.9628 159.195 68.4077 150.513 66.6635 140.738C64.8882 131.022 67.1145 121 72.8365 112.95C80.0448 102.861 88.5927 99.2485 100.311 97.2503C101.333 91.9898 102.031 88.23 104.621 83.4443C111.286 71.1293 121.625 65.2728 135.154 63.6948ZM140.086 181.192C143.554 180.46 146.711 178.57 148.577 175.48C153.979 166.54 145.75 152.013 159.884 148.282C168.046 146.127 177.793 150.546 183.241 141.469C185.067 138.652 185.497 133.741 184.635 130.517C183.758 127.181 181.546 124.354 178.518 122.701C170.382 118.292 155.846 125.697 151.609 112.707C149.217 105.372 153.745 93.7905 144.252 88.3388C141.091 86.5233 137.889 86.7365 134.432 86.9685C131.193 87.494 128.523 89.0825 126.576 91.7505C120.877 99.563 127.673 110.484 120.119 117.432C116.081 121.145 112.307 120.943 107.242 121.022C103.176 121.085 99.5918 121.168 95.9175 123.045C87.5085 127.342 87.734 140.188 95.5898 144.941C103.116 149.547 112.845 144.187 119.814 150.204C126.096 155.627 123.047 164.112 124.377 171.15C125.822 178.797 132.906 182.23 140.086 181.192Z" fill="#e03a2f"/>
<path d="M364.75 157.456C376.94 156.25 387.815 165.117 389.085 177.302C390.355 189.485 381.542 200.405 369.367 201.74C357.1 203.082 346.08 194.192 344.8 181.917C343.52 169.642 352.47 158.671 364.75 157.456Z" fill="#e03a2f"/>
<path d="M409.92 112.196C422.13 110.932 433.058 119.787 434.353 131.992C435.645 144.197 426.815 155.147 414.615 156.47C402.37 157.797 391.375 148.932 390.078 136.685C388.78 124.439 397.673 113.465 409.92 112.196Z" fill="#e03a2f"/>
<path d="M319.36 112.199C331.51 110.935 342.408 119.7 343.783 131.838C345.155 143.976 336.49 154.953 324.362 156.436C312.082 157.937 300.933 149.136 299.543 136.842C298.153 124.548 307.052 113.479 319.36 112.199Z" fill="#e03a2f"/>
<path d="M364.315 66.9485C376.51 65.496 387.578 74.1975 389.043 86.3913C390.508 98.5848 381.818 109.661 369.625 111.139C357.415 112.619 346.32 103.913 344.853 91.7015C343.385 79.4898 352.103 68.4033 364.315 66.9485Z" fill="#e03a2f"/>
</svg>
